G04*
G04 #@! TF.GenerationSoftware,Altium Limited,Altium Designer,20.1.11 (218)*
G04*
G04 Layer_Color=8388736*
%FSAX24Y24*%
%MOIN*%
G70*
G04*
G04 #@! TF.SameCoordinates,8D6CE9FB-AABF-4BDC-A6A6-A5C6F517AC22*
G04*
G04*
G04 #@! TF.FilePolarity,Negative*
G04*
G01*
G75*
%ADD19C,0.0531*%
%ADD20R,0.0374X0.0374*%
%ADD21O,0.0236X0.0610*%
%ADD22R,0.0846X0.0846*%
%ADD23C,0.0846*%
%ADD24C,0.0768*%
%ADD25R,0.1240X0.1240*%
%ADD26C,0.2283*%
%ADD27P,0.2195X8X292.5*%
%ADD28C,0.2559*%
%ADD29C,0.0559*%
D19*
X016174Y026273D02*
D03*
Y016273D02*
D03*
D20*
X014558Y036944D02*
D03*
Y038795D02*
D03*
X013550Y038741D02*
D03*
Y038150D02*
D03*
Y037535D02*
D03*
Y036944D02*
D03*
X014100Y034991D02*
D03*
Y034400D02*
D03*
Y035550D02*
D03*
Y036141D02*
D03*
X014558Y037535D02*
D03*
Y038204D02*
D03*
D21*
X014940Y033572D02*
D03*
X015196D02*
D03*
X015452Y035895D02*
D03*
X016987D02*
D03*
X016731D02*
D03*
X016476D02*
D03*
X016220D02*
D03*
X015964D02*
D03*
X015708D02*
D03*
X015196D02*
D03*
X014684D02*
D03*
X016731Y033572D02*
D03*
X016476D02*
D03*
X016220D02*
D03*
X015964D02*
D03*
X015708D02*
D03*
X015452D02*
D03*
X014684D02*
D03*
X016987D02*
D03*
X014940Y035895D02*
D03*
D22*
X018690Y038401D02*
D03*
X039210Y038401D02*
D03*
X028950D02*
D03*
D23*
X017690D02*
D03*
X016690Y038401D02*
D03*
X015690D02*
D03*
X038210Y038401D02*
D03*
X037210D02*
D03*
X036210Y038401D02*
D03*
X035210Y038401D02*
D03*
X034210D02*
D03*
X033210Y038401D02*
D03*
X032210Y038401D02*
D03*
X031210D02*
D03*
X030210D02*
D03*
X027950D02*
D03*
X026950D02*
D03*
X025950Y038401D02*
D03*
X024950Y038401D02*
D03*
X023950D02*
D03*
X022950Y038401D02*
D03*
X021950Y038401D02*
D03*
X020950D02*
D03*
X019950D02*
D03*
D24*
X018143Y018273D02*
D03*
X024143Y034273D02*
D03*
X018143Y019273D02*
D03*
X024143Y033273D02*
D03*
Y035273D02*
D03*
Y032273D02*
D03*
X018143Y021273D02*
D03*
X024143Y031273D02*
D03*
X018143Y030273D02*
D03*
Y031273D02*
D03*
Y020273D02*
D03*
Y022273D02*
D03*
Y033273D02*
D03*
Y036273D02*
D03*
Y035273D02*
D03*
Y025273D02*
D03*
Y032273D02*
D03*
Y023273D02*
D03*
Y026273D02*
D03*
Y024273D02*
D03*
X024143Y036273D02*
D03*
Y030273D02*
D03*
Y029273D02*
D03*
Y028273D02*
D03*
Y026273D02*
D03*
Y025273D02*
D03*
Y024273D02*
D03*
Y023273D02*
D03*
Y022273D02*
D03*
Y021273D02*
D03*
Y020273D02*
D03*
Y019273D02*
D03*
Y018273D02*
D03*
Y017273D02*
D03*
Y016273D02*
D03*
Y015273D02*
D03*
Y014273D02*
D03*
X018143Y034273D02*
D03*
Y013273D02*
D03*
Y015273D02*
D03*
Y028273D02*
D03*
Y029273D02*
D03*
X024143Y027273D02*
D03*
X018143Y016273D02*
D03*
Y017273D02*
D03*
X024143Y013273D02*
D03*
X018143Y027273D02*
D03*
Y014273D02*
D03*
D25*
X027608Y030637D02*
D03*
Y028668D02*
D03*
Y026700D02*
D03*
Y024731D02*
D03*
Y022763D02*
D03*
Y020794D02*
D03*
Y018826D02*
D03*
Y016857D02*
D03*
X037450D02*
D03*
Y018826D02*
D03*
Y020794D02*
D03*
Y022763D02*
D03*
Y024731D02*
D03*
Y026700D02*
D03*
Y028668D02*
D03*
Y030637D02*
D03*
X027608Y032605D02*
D03*
X037450Y032605D02*
D03*
D26*
X027411Y014495D02*
D03*
X037647D02*
D03*
Y034967D02*
D03*
X027411D02*
D03*
D27*
X034852Y017369D02*
D03*
X030206D02*
D03*
D28*
X041033Y041033D02*
D03*
X013867Y013867D02*
D03*
X013887Y041033D02*
D03*
X041033Y013867D02*
D03*
D29*
X041715Y040350D02*
D03*
X041033Y040068D02*
D03*
X040350Y040350D02*
D03*
X040068Y041033D02*
D03*
X040350Y041715D02*
D03*
X041715D02*
D03*
X041998Y041033D02*
D03*
X041033Y041998D02*
D03*
X013867Y014832D02*
D03*
X014832Y013867D02*
D03*
X014550Y014550D02*
D03*
X013185D02*
D03*
X012902Y013867D02*
D03*
X013185Y013185D02*
D03*
X013867Y012902D02*
D03*
X014550Y013185D02*
D03*
Y040350D02*
D03*
X013867Y040068D02*
D03*
X013185Y040350D02*
D03*
X012902Y041033D02*
D03*
X013185Y041715D02*
D03*
X014550D02*
D03*
X014832Y041033D02*
D03*
X013867Y041998D02*
D03*
X041715Y013185D02*
D03*
X041033Y012902D02*
D03*
X040350Y013185D02*
D03*
X040068Y013867D02*
D03*
X040350Y014550D02*
D03*
X041715D02*
D03*
X041998Y013867D02*
D03*
X041033Y014832D02*
D03*
M02*
