G04*
G04 #@! TF.GenerationSoftware,Altium Limited,Altium Designer,20.1.11 (218)*
G04*
G04 Layer_Physical_Order=2*
G04 Layer_Color=9720587*
%FSAX24Y24*%
%MOIN*%
G70*
G04*
G04 #@! TF.SameCoordinates,8D6CE9FB-AABF-4BDC-A6A6-A5C6F517AC22*
G04*
G04*
G04 #@! TF.FilePolarity,Positive*
G04*
G01*
G75*
%ADD10C,0.0100*%
%ADD30C,0.0500*%
%ADD33R,0.0787X0.0787*%
%ADD34C,0.0787*%
%ADD35C,0.0709*%
%ADD36R,0.1181X0.1181*%
%ADD37C,0.1142*%
%ADD38P,0.2131X8X292.5*%
%ADD39C,0.2500*%
%ADD40C,0.0500*%
%ADD41C,0.0200*%
%ADD42C,0.0400*%
G36*
X042297Y042297D02*
Y041534D01*
X042247Y041524D01*
X042204Y041629D01*
X042096Y041805D01*
X041962Y041962D01*
X041805Y042096D01*
X041629Y042203D01*
X041524Y042247D01*
X041534Y042297D01*
X042297D01*
D02*
G37*
G36*
X013385Y042297D02*
X013395Y042247D01*
X013290Y042204D01*
X013114Y042096D01*
X012957Y041962D01*
X012824Y041805D01*
X012716Y041629D01*
X012653Y041477D01*
X012603Y041487D01*
Y042297D01*
X013385D01*
D02*
G37*
G36*
X040531Y042297D02*
X040541Y042247D01*
X040436Y042203D01*
X040260Y042096D01*
X040104Y041962D01*
X039970Y041805D01*
X039862Y041629D01*
X039783Y041439D01*
X039735Y041238D01*
X039719Y041033D01*
X039735Y040827D01*
X039783Y040627D01*
X039862Y040436D01*
X039970Y040260D01*
X040104Y040103D01*
X040260Y039970D01*
X040436Y039862D01*
X040627Y039783D01*
X040827Y039735D01*
X041033Y039719D01*
X041238Y039735D01*
X041439Y039783D01*
X041629Y039862D01*
X041805Y039970D01*
X041962Y040103D01*
X042096Y040260D01*
X042204Y040436D01*
X042247Y040541D01*
X042297Y040531D01*
X042297Y014369D01*
X042247Y014359D01*
X042203Y014464D01*
X042096Y014640D01*
X041962Y014797D01*
X041805Y014930D01*
X041629Y015038D01*
X041439Y015117D01*
X041238Y015165D01*
X041033Y015181D01*
X040827Y015165D01*
X040627Y015117D01*
X040436Y015038D01*
X040260Y014930D01*
X040103Y014797D01*
X039970Y014640D01*
X039862Y014464D01*
X039783Y014273D01*
X039735Y014073D01*
X039719Y013867D01*
X039735Y013662D01*
X039783Y013461D01*
X039862Y013271D01*
X039970Y013095D01*
X040103Y012938D01*
X040260Y012804D01*
X040436Y012697D01*
X040541Y012653D01*
X040531Y012603D01*
X038758D01*
X038739Y012649D01*
X039629Y013539D01*
X039629Y013539D01*
X039654Y013576D01*
X039662Y013619D01*
X039662Y013619D01*
Y020663D01*
X039662Y020663D01*
X039654Y020706D01*
X039629Y020742D01*
X038101Y022271D01*
Y023413D01*
X037603D01*
Y024081D01*
X038101D01*
Y025382D01*
X037603D01*
Y026049D01*
X038101D01*
Y027350D01*
X037603D01*
Y028018D01*
X038101D01*
Y029319D01*
X037603D01*
Y029986D01*
X038101D01*
Y031287D01*
X037603D01*
Y031955D01*
X038101D01*
Y033256D01*
X037603D01*
Y033393D01*
X037592Y033451D01*
X037559Y033501D01*
X037509Y033534D01*
X037450Y033545D01*
X027608D01*
X027549Y033534D01*
X027500Y033501D01*
X027467Y033451D01*
X027455Y033393D01*
Y033256D01*
X026957D01*
Y031955D01*
X027455D01*
Y031287D01*
X026957D01*
Y030749D01*
X024507D01*
X024507Y030749D01*
X024464Y030740D01*
X024427Y030716D01*
X024427Y030716D01*
X024348Y030636D01*
X024251Y030677D01*
X024143Y030691D01*
X024035Y030677D01*
X023934Y030635D01*
X023847Y030568D01*
X023781Y030482D01*
X023739Y030381D01*
X023725Y030273D01*
X023739Y030165D01*
X023781Y030064D01*
X023847Y029977D01*
X023934Y029911D01*
X024035Y029869D01*
X024143Y029855D01*
X024251Y029869D01*
X024352Y029911D01*
X024438Y029977D01*
X024505Y030064D01*
X024547Y030165D01*
X024561Y030273D01*
X024547Y030381D01*
X024506Y030478D01*
X024553Y030524D01*
X026957D01*
Y029986D01*
X027455D01*
Y029319D01*
X026957D01*
Y028780D01*
X024794D01*
X024506Y029068D01*
X024547Y029165D01*
X024561Y029273D01*
X024547Y029381D01*
X024505Y029482D01*
X024438Y029568D01*
X024352Y029635D01*
X024251Y029677D01*
X024143Y029691D01*
X024035Y029677D01*
X023934Y029635D01*
X023847Y029568D01*
X023781Y029482D01*
X023739Y029381D01*
X023725Y029273D01*
X023739Y029165D01*
X023781Y029064D01*
X023847Y028977D01*
X023934Y028911D01*
X024035Y028869D01*
X024143Y028855D01*
X024251Y028869D01*
X024348Y028909D01*
X024668Y028589D01*
X024668Y028589D01*
X024705Y028564D01*
X024748Y028556D01*
X024748Y028556D01*
X026957D01*
Y028018D01*
X027455D01*
Y027350D01*
X026957D01*
Y026812D01*
X025763D01*
X024506Y028068D01*
X024547Y028165D01*
X024561Y028273D01*
X024547Y028381D01*
X024505Y028482D01*
X024438Y028568D01*
X024352Y028635D01*
X024251Y028677D01*
X024143Y028691D01*
X024035Y028677D01*
X023934Y028635D01*
X023847Y028568D01*
X023781Y028482D01*
X023739Y028381D01*
X023725Y028273D01*
X023739Y028165D01*
X023781Y028064D01*
X023847Y027977D01*
X023934Y027911D01*
X024035Y027869D01*
X024143Y027855D01*
X024251Y027869D01*
X024348Y027909D01*
X025637Y026620D01*
X025637Y026620D01*
X025673Y026596D01*
X025716Y026587D01*
X026957D01*
Y026049D01*
X027455D01*
Y025382D01*
X026957D01*
Y024843D01*
X025731D01*
X024506Y026068D01*
X024547Y026165D01*
X024561Y026273D01*
X024547Y026381D01*
X024505Y026482D01*
X024438Y026568D01*
X024352Y026635D01*
X024251Y026677D01*
X024143Y026691D01*
X024035Y026677D01*
X023934Y026635D01*
X023847Y026568D01*
X023781Y026482D01*
X023739Y026381D01*
X023725Y026273D01*
X023739Y026165D01*
X023781Y026064D01*
X023847Y025977D01*
X023934Y025911D01*
X024035Y025869D01*
X024143Y025855D01*
X024251Y025869D01*
X024348Y025909D01*
X025605Y024652D01*
X025605Y024652D01*
X025642Y024627D01*
X025685Y024619D01*
X025685Y024619D01*
X026957D01*
Y024081D01*
X027455D01*
Y023413D01*
X026957D01*
Y022875D01*
X026700D01*
X024506Y025068D01*
X024547Y025165D01*
X024561Y025273D01*
X024547Y025381D01*
X024505Y025482D01*
X024438Y025568D01*
X024352Y025635D01*
X024251Y025677D01*
X024143Y025691D01*
X024035Y025677D01*
X023934Y025635D01*
X023847Y025568D01*
X023781Y025482D01*
X023739Y025381D01*
X023725Y025273D01*
X023739Y025165D01*
X023781Y025064D01*
X023847Y024977D01*
X023934Y024911D01*
X024035Y024869D01*
X024143Y024855D01*
X024251Y024869D01*
X024348Y024909D01*
X026574Y022683D01*
X026574Y022683D01*
X026610Y022659D01*
X026653Y022650D01*
X026957D01*
Y022112D01*
X027455D01*
Y021445D01*
X027116D01*
X024501Y024059D01*
X024505Y024064D01*
X024547Y024165D01*
X024561Y024273D01*
X024547Y024381D01*
X024505Y024482D01*
X024438Y024568D01*
X024352Y024635D01*
X024251Y024677D01*
X024143Y024691D01*
X024035Y024677D01*
X023934Y024635D01*
X023847Y024568D01*
X023781Y024482D01*
X023739Y024381D01*
X023725Y024273D01*
X023739Y024165D01*
X023781Y024064D01*
X023847Y023977D01*
X023934Y023911D01*
X024035Y023869D01*
X024143Y023855D01*
X024251Y023869D01*
X024338Y023905D01*
X026957Y021286D01*
Y020144D01*
X027455D01*
Y019476D01*
X027116D01*
X026412Y020180D01*
Y021116D01*
X026412Y021116D01*
X026404Y021159D01*
X026379Y021195D01*
X026379Y021195D01*
X024506Y023068D01*
X024547Y023165D01*
X024561Y023273D01*
X024547Y023381D01*
X024505Y023482D01*
X024438Y023568D01*
X024352Y023635D01*
X024251Y023677D01*
X024143Y023691D01*
X024035Y023677D01*
X023934Y023635D01*
X023847Y023568D01*
X023781Y023482D01*
X023739Y023381D01*
X023725Y023273D01*
X023739Y023165D01*
X023781Y023064D01*
X023847Y022977D01*
X023934Y022911D01*
X024035Y022869D01*
X024143Y022855D01*
X024251Y022869D01*
X024348Y022909D01*
X026188Y021069D01*
Y020447D01*
X026138Y020432D01*
X026129Y020445D01*
X026129Y020445D01*
X024506Y022068D01*
X024547Y022165D01*
X024561Y022273D01*
X024547Y022381D01*
X024505Y022482D01*
X024438Y022568D01*
X024352Y022635D01*
X024251Y022677D01*
X024143Y022691D01*
X024035Y022677D01*
X023934Y022635D01*
X023847Y022568D01*
X023781Y022482D01*
X023739Y022381D01*
X023725Y022273D01*
X023739Y022165D01*
X023781Y022064D01*
X023847Y021977D01*
X023934Y021911D01*
X024035Y021869D01*
X024143Y021855D01*
X024251Y021869D01*
X024348Y021909D01*
X025938Y020319D01*
Y019697D01*
X025888Y019682D01*
X025879Y019695D01*
X024506Y021068D01*
X024547Y021165D01*
X024561Y021273D01*
X024547Y021381D01*
X024505Y021482D01*
X024438Y021568D01*
X024352Y021635D01*
X024251Y021677D01*
X024143Y021691D01*
X024035Y021677D01*
X023934Y021635D01*
X023847Y021568D01*
X023781Y021482D01*
X023739Y021381D01*
X023725Y021273D01*
X023739Y021165D01*
X023781Y021064D01*
X023847Y020977D01*
X023934Y020911D01*
X024035Y020869D01*
X024143Y020855D01*
X024251Y020869D01*
X024348Y020909D01*
X025688Y019569D01*
Y018957D01*
X025638Y018937D01*
X024506Y020068D01*
X024547Y020165D01*
X024561Y020273D01*
X024547Y020381D01*
X024505Y020482D01*
X024438Y020568D01*
X024352Y020635D01*
X024251Y020677D01*
X024143Y020691D01*
X024035Y020677D01*
X023934Y020635D01*
X023847Y020568D01*
X023781Y020482D01*
X023739Y020381D01*
X023725Y020273D01*
X023739Y020165D01*
X023781Y020064D01*
X023847Y019977D01*
X023934Y019911D01*
X024035Y019869D01*
X024143Y019855D01*
X024251Y019869D01*
X024348Y019909D01*
X025488Y018769D01*
Y018157D01*
X025438Y018137D01*
X024506Y019068D01*
X024547Y019165D01*
X024561Y019273D01*
X024547Y019381D01*
X024505Y019482D01*
X024438Y019568D01*
X024352Y019635D01*
X024251Y019677D01*
X024143Y019691D01*
X024035Y019677D01*
X023934Y019635D01*
X023847Y019568D01*
X023781Y019482D01*
X023739Y019381D01*
X023725Y019273D01*
X023739Y019165D01*
X023781Y019064D01*
X023847Y018977D01*
X023934Y018911D01*
X024035Y018869D01*
X024143Y018855D01*
X024251Y018869D01*
X024348Y018909D01*
X025288Y017969D01*
Y017641D01*
X025238Y017621D01*
X024557Y018302D01*
X024547Y018381D01*
X024505Y018482D01*
X024438Y018568D01*
X024352Y018635D01*
X024251Y018677D01*
X024143Y018691D01*
X024035Y018677D01*
X023934Y018635D01*
X023847Y018568D01*
X023781Y018482D01*
X023739Y018381D01*
X023725Y018273D01*
X023739Y018165D01*
X023781Y018064D01*
X023847Y017977D01*
X023934Y017911D01*
X024035Y017869D01*
X024143Y017855D01*
X024251Y017869D01*
X024352Y017911D01*
X024438Y017977D01*
X024470Y018018D01*
X024520Y018022D01*
X025088Y017454D01*
Y013834D01*
X025088Y013834D01*
X025096Y013791D01*
X025121Y013755D01*
X026227Y012649D01*
X026207Y012603D01*
X014369Y012603D01*
X014359Y012653D01*
X014464Y012697D01*
X014640Y012804D01*
X014797Y012938D01*
X014930Y013095D01*
X015038Y013271D01*
X015117Y013461D01*
X015165Y013662D01*
X015181Y013867D01*
X015165Y014073D01*
X015117Y014273D01*
X015038Y014464D01*
X014930Y014640D01*
X014797Y014797D01*
X014640Y014930D01*
X014464Y015038D01*
X014273Y015117D01*
X014073Y015165D01*
X013867Y015181D01*
X013662Y015165D01*
X013461Y015117D01*
X013271Y015038D01*
X013095Y014930D01*
X012938Y014797D01*
X012804Y014640D01*
X012697Y014464D01*
X012653Y014359D01*
X012603Y014369D01*
X012603Y040578D01*
X012653Y040588D01*
X012716Y040436D01*
X012824Y040260D01*
X012957Y040104D01*
X013114Y039970D01*
X013290Y039862D01*
X013481Y039783D01*
X013681Y039735D01*
X013887Y039719D01*
X014092Y039735D01*
X014293Y039783D01*
X014483Y039862D01*
X014659Y039970D01*
X014816Y040104D01*
X014950Y040260D01*
X015057Y040436D01*
X015136Y040627D01*
X015184Y040827D01*
X015201Y041033D01*
X015184Y041238D01*
X015136Y041439D01*
X015057Y041629D01*
X014950Y041805D01*
X014816Y041962D01*
X014659Y042096D01*
X014483Y042204D01*
X014378Y042247D01*
X014388Y042297D01*
X040531Y042297D01*
D02*
G37*
G36*
X039438Y020617D02*
Y019036D01*
X039388Y019015D01*
X038101Y020302D01*
Y021445D01*
X037603D01*
Y022112D01*
X037942D01*
X039438Y020617D01*
D02*
G37*
G36*
X026221Y020054D02*
X026957Y019318D01*
Y018175D01*
X027455D01*
Y017508D01*
X027116D01*
X026162Y018461D01*
Y020052D01*
X026212Y020067D01*
X026221Y020054D01*
D02*
G37*
G36*
X039238Y018848D02*
Y017267D01*
X039188Y017247D01*
X038101Y018334D01*
Y019476D01*
X037603D01*
Y020144D01*
X037942D01*
X039238Y018848D01*
D02*
G37*
G36*
X039038Y017079D02*
Y015499D01*
X038988Y015478D01*
X038101Y016365D01*
Y017508D01*
X037603D01*
Y018175D01*
X037942D01*
X039038Y017079D01*
D02*
G37*
G36*
X025971Y018336D02*
X026957Y017349D01*
Y016207D01*
X027455D01*
Y016070D01*
X027467Y016011D01*
X027500Y015962D01*
X027549Y015928D01*
X027608Y015917D01*
X028828D01*
X028887Y015928D01*
X028936Y015962D01*
X028970Y016011D01*
X028981Y016070D01*
Y017088D01*
X029109Y017216D01*
X029162D01*
Y016847D01*
X029684Y016325D01*
X030728D01*
X031251Y016847D01*
Y017216D01*
X033808D01*
Y016847D01*
X034330Y016325D01*
X035374D01*
X035896Y016847D01*
Y017216D01*
X035970D01*
X036077Y017109D01*
Y016070D01*
X036089Y016011D01*
X036122Y015962D01*
X036171Y015928D01*
X036230Y015917D01*
X037450D01*
X037509Y015928D01*
X037559Y015962D01*
X037592Y016011D01*
X037603Y016070D01*
Y016207D01*
X037942D01*
X038838Y015311D01*
Y014946D01*
X038788Y014936D01*
X038740Y015052D01*
X038639Y015216D01*
X038514Y015362D01*
X038368Y015487D01*
X038204Y015588D01*
X038026Y015661D01*
X037839Y015706D01*
X037647Y015721D01*
X037455Y015706D01*
X037268Y015661D01*
X037090Y015588D01*
X036926Y015487D01*
X036780Y015362D01*
X036655Y015216D01*
X036555Y015052D01*
X036481Y014874D01*
X036436Y014687D01*
X036421Y014495D01*
X036436Y014303D01*
X036481Y014116D01*
X036555Y013938D01*
X036655Y013774D01*
X036780Y013628D01*
X036926Y013503D01*
X037074Y013412D01*
X037060Y013362D01*
X027998D01*
X027984Y013412D01*
X028132Y013503D01*
X028278Y013628D01*
X028403Y013774D01*
X028504Y013938D01*
X028577Y014116D01*
X028622Y014303D01*
X028637Y014495D01*
X028622Y014687D01*
X028577Y014874D01*
X028504Y015052D01*
X028403Y015216D01*
X028278Y015362D01*
X028132Y015487D01*
X027968Y015588D01*
X027790Y015661D01*
X027603Y015706D01*
X027411Y015721D01*
X027219Y015706D01*
X027032Y015661D01*
X026854Y015588D01*
X026690Y015487D01*
X026544Y015362D01*
X026419Y015216D01*
X026318Y015052D01*
X026245Y014874D01*
X026200Y014687D01*
X026185Y014495D01*
X026200Y014303D01*
X026245Y014116D01*
X026318Y013938D01*
X026419Y013774D01*
X026544Y013628D01*
X026690Y013503D01*
X026838Y013412D01*
X026824Y013362D01*
X026510D01*
X025912Y013960D01*
Y018333D01*
X025962Y018348D01*
X025971Y018336D01*
D02*
G37*
G36*
X012697Y013271D02*
X012804Y013095D01*
X012938Y012938D01*
X013095Y012804D01*
X013271Y012697D01*
X013376Y012653D01*
X013366Y012603D01*
X012603D01*
Y013366D01*
X012653Y013376D01*
X012697Y013271D01*
D02*
G37*
G36*
X042297Y013366D02*
Y012603D01*
X041534D01*
X041524Y012653D01*
X041629Y012697D01*
X041805Y012804D01*
X041962Y012938D01*
X042096Y013095D01*
X042203Y013271D01*
X042247Y013376D01*
X042297Y013366D01*
D02*
G37*
%LPC*%
G36*
X019144Y038855D02*
X018730D01*
Y038441D01*
X019144D01*
Y038855D01*
D02*
G37*
G36*
X018650D02*
X018236D01*
Y038441D01*
X018650D01*
Y038855D01*
D02*
G37*
G36*
X019144Y038361D02*
X018730D01*
Y037947D01*
X019144D01*
Y038361D01*
D02*
G37*
G36*
X018650D02*
X018236D01*
Y037947D01*
X018650D01*
Y038361D01*
D02*
G37*
G36*
X036210Y038859D02*
X036091Y038843D01*
X035981Y038797D01*
X035886Y038725D01*
X035814Y038630D01*
X035768Y038519D01*
X035752Y038401D01*
X035768Y038283D01*
X035814Y038172D01*
X035886Y038077D01*
X035981Y038005D01*
X036091Y037959D01*
X036210Y037943D01*
X036328Y037959D01*
X036439Y038005D01*
X036533Y038077D01*
X036606Y038172D01*
X036652Y038283D01*
X036667Y038401D01*
X036652Y038519D01*
X036606Y038630D01*
X036533Y038725D01*
X036439Y038797D01*
X036328Y038843D01*
X036210Y038859D01*
D02*
G37*
G36*
X025950D02*
X025832Y038843D01*
X025721Y038797D01*
X025626Y038725D01*
X025554Y038630D01*
X025508Y038519D01*
X025492Y038401D01*
X025508Y038283D01*
X025554Y038172D01*
X025626Y038077D01*
X025721Y038005D01*
X025832Y037959D01*
X025950Y037943D01*
X026068Y037959D01*
X026179Y038005D01*
X026274Y038077D01*
X026346Y038172D01*
X026392Y038283D01*
X026408Y038401D01*
X026392Y038519D01*
X026346Y038630D01*
X026274Y038725D01*
X026179Y038797D01*
X026068Y038843D01*
X025950Y038859D01*
D02*
G37*
G36*
X022950D02*
X022832Y038843D01*
X022721Y038797D01*
X022626Y038725D01*
X022554Y038630D01*
X022508Y038519D01*
X022492Y038401D01*
X022508Y038283D01*
X022554Y038172D01*
X022626Y038077D01*
X022721Y038005D01*
X022832Y037959D01*
X022950Y037943D01*
X023068Y037959D01*
X023179Y038005D01*
X023274Y038077D01*
X023346Y038172D01*
X023392Y038283D01*
X023408Y038401D01*
X023392Y038519D01*
X023346Y038630D01*
X023274Y038725D01*
X023179Y038797D01*
X023068Y038843D01*
X022950Y038859D01*
D02*
G37*
G36*
X038210Y038859D02*
X038091Y038843D01*
X037981Y038797D01*
X037886Y038725D01*
X037814Y038630D01*
X037768Y038519D01*
X037752Y038401D01*
X037768Y038283D01*
X037814Y038172D01*
X037886Y038077D01*
X037981Y038005D01*
X038091Y037959D01*
X038210Y037943D01*
X038328Y037959D01*
X038439Y038005D01*
X038533Y038077D01*
X038606Y038172D01*
X038652Y038283D01*
X038667Y038401D01*
X038652Y038519D01*
X038606Y038630D01*
X038533Y038725D01*
X038439Y038797D01*
X038328Y038843D01*
X038210Y038859D01*
D02*
G37*
G36*
X034210D02*
X034091Y038843D01*
X033981Y038797D01*
X033886Y038725D01*
X033814Y038630D01*
X033768Y038519D01*
X033752Y038401D01*
X033768Y038283D01*
X033814Y038172D01*
X033886Y038077D01*
X033981Y038005D01*
X034091Y037959D01*
X034210Y037943D01*
X034328Y037959D01*
X034439Y038005D01*
X034533Y038077D01*
X034606Y038172D01*
X034652Y038283D01*
X034667Y038401D01*
X034652Y038519D01*
X034606Y038630D01*
X034533Y038725D01*
X034439Y038797D01*
X034328Y038843D01*
X034210Y038859D01*
D02*
G37*
G36*
X032210D02*
X032091Y038843D01*
X031981Y038797D01*
X031886Y038725D01*
X031814Y038630D01*
X031768Y038519D01*
X031752Y038401D01*
X031768Y038283D01*
X031814Y038172D01*
X031886Y038077D01*
X031981Y038005D01*
X032091Y037959D01*
X032210Y037943D01*
X032328Y037959D01*
X032439Y038005D01*
X032533Y038077D01*
X032606Y038172D01*
X032652Y038283D01*
X032667Y038401D01*
X032652Y038519D01*
X032606Y038630D01*
X032533Y038725D01*
X032439Y038797D01*
X032328Y038843D01*
X032210Y038859D01*
D02*
G37*
G36*
X033210Y038859D02*
X033091Y038843D01*
X032981Y038797D01*
X032886Y038725D01*
X032814Y038630D01*
X032768Y038519D01*
X032752Y038401D01*
X032768Y038283D01*
X032814Y038172D01*
X032817Y038167D01*
X031612Y036962D01*
X030000D01*
X029980Y037012D01*
X030976Y038009D01*
X030981Y038005D01*
X031091Y037959D01*
X031210Y037943D01*
X031328Y037959D01*
X031439Y038005D01*
X031533Y038077D01*
X031606Y038172D01*
X031652Y038283D01*
X031667Y038401D01*
X031652Y038519D01*
X031606Y038630D01*
X031533Y038725D01*
X031439Y038797D01*
X031328Y038843D01*
X031210Y038859D01*
X031091Y038843D01*
X030981Y038797D01*
X030886Y038725D01*
X030814Y038630D01*
X030768Y038519D01*
X030752Y038401D01*
X030768Y038283D01*
X030814Y038172D01*
X030817Y038167D01*
X029812Y037162D01*
X027940D01*
X027920Y037212D01*
X028655Y037947D01*
X029404D01*
Y038855D01*
X028496D01*
Y038106D01*
X027753Y037362D01*
X026679D01*
X026679Y037362D01*
X026636Y037354D01*
X026600Y037329D01*
X025655Y036385D01*
X024545D01*
X024505Y036482D01*
X024438Y036568D01*
X024352Y036635D01*
X024251Y036677D01*
X024143Y036691D01*
X024035Y036677D01*
X023934Y036635D01*
X023847Y036568D01*
X023781Y036482D01*
X023739Y036381D01*
X023725Y036273D01*
X023739Y036165D01*
X023781Y036064D01*
X023847Y035977D01*
X023934Y035911D01*
X024035Y035869D01*
X024143Y035855D01*
X024251Y035869D01*
X024352Y035911D01*
X024438Y035977D01*
X024505Y036064D01*
X024545Y036161D01*
X025592D01*
X025611Y036114D01*
X024881Y035385D01*
X024545D01*
X024505Y035482D01*
X024438Y035568D01*
X024352Y035635D01*
X024251Y035677D01*
X024143Y035691D01*
X024035Y035677D01*
X023934Y035635D01*
X023847Y035568D01*
X023781Y035482D01*
X023739Y035381D01*
X023725Y035273D01*
X023739Y035165D01*
X023781Y035064D01*
X023847Y034977D01*
X023934Y034911D01*
X024035Y034869D01*
X024143Y034855D01*
X024251Y034869D01*
X024352Y034911D01*
X024438Y034977D01*
X024505Y035064D01*
X024545Y035161D01*
X024881D01*
X024902Y035111D01*
X024394Y034603D01*
X024352Y034635D01*
X024251Y034677D01*
X024143Y034691D01*
X024035Y034677D01*
X023934Y034635D01*
X023847Y034568D01*
X023781Y034482D01*
X023739Y034381D01*
X023725Y034273D01*
X023739Y034165D01*
X023781Y034064D01*
X023847Y033977D01*
X023934Y033911D01*
X024035Y033869D01*
X024143Y033855D01*
X024251Y033869D01*
X024352Y033911D01*
X024438Y033977D01*
X024505Y034064D01*
X024547Y034165D01*
X024561Y034273D01*
X024547Y034381D01*
X024530Y034421D01*
X024642Y034533D01*
X024688Y034514D01*
Y033976D01*
X024348Y033636D01*
X024251Y033677D01*
X024143Y033691D01*
X024035Y033677D01*
X023934Y033635D01*
X023847Y033568D01*
X023781Y033482D01*
X023739Y033381D01*
X023725Y033273D01*
X023739Y033165D01*
X023781Y033064D01*
X023847Y032977D01*
X023934Y032911D01*
X024035Y032869D01*
X024143Y032855D01*
X024251Y032869D01*
X024352Y032911D01*
X024438Y032977D01*
X024505Y033064D01*
X024547Y033165D01*
X024561Y033273D01*
X024547Y033381D01*
X024506Y033478D01*
X024879Y033851D01*
X024879Y033851D01*
X024888Y033863D01*
X024938Y033848D01*
Y033226D01*
X024348Y032636D01*
X024251Y032677D01*
X024143Y032691D01*
X024035Y032677D01*
X023934Y032635D01*
X023847Y032568D01*
X023781Y032482D01*
X023739Y032381D01*
X023725Y032273D01*
X023739Y032165D01*
X023781Y032064D01*
X023847Y031977D01*
X023934Y031911D01*
X024035Y031869D01*
X024143Y031855D01*
X024251Y031869D01*
X024352Y031911D01*
X024438Y031977D01*
X024505Y032064D01*
X024547Y032165D01*
X024561Y032273D01*
X024547Y032381D01*
X024506Y032478D01*
X025129Y033101D01*
X025129Y033101D01*
X025154Y033137D01*
X025162Y033180D01*
X025162Y033180D01*
Y034559D01*
X025182Y034574D01*
X025232Y034550D01*
Y032520D01*
X024348Y031636D01*
X024251Y031677D01*
X024143Y031691D01*
X024035Y031677D01*
X023934Y031635D01*
X023847Y031568D01*
X023781Y031482D01*
X023739Y031381D01*
X023725Y031273D01*
X023739Y031165D01*
X023781Y031064D01*
X023847Y030977D01*
X023934Y030911D01*
X024035Y030869D01*
X024143Y030855D01*
X024251Y030869D01*
X024352Y030911D01*
X024438Y030977D01*
X024505Y031064D01*
X024547Y031165D01*
X024561Y031273D01*
X024547Y031381D01*
X024506Y031478D01*
X025423Y032395D01*
X025423Y032395D01*
X025448Y032431D01*
X025456Y032474D01*
X025456Y032474D01*
Y034645D01*
X026216Y035405D01*
X026257Y035377D01*
X026245Y035346D01*
X026200Y035159D01*
X026185Y034967D01*
X026200Y034775D01*
X026245Y034588D01*
X026318Y034411D01*
X026419Y034246D01*
X026544Y034100D01*
X026690Y033975D01*
X026854Y033875D01*
X027032Y033801D01*
X027219Y033756D01*
X027411Y033741D01*
X027603Y033756D01*
X027790Y033801D01*
X027968Y033875D01*
X028132Y033975D01*
X028278Y034100D01*
X028403Y034246D01*
X028504Y034411D01*
X028577Y034588D01*
X028622Y034775D01*
X028637Y034967D01*
X028622Y035159D01*
X028577Y035346D01*
X028504Y035524D01*
X028403Y035688D01*
X028278Y035834D01*
X028132Y035959D01*
X027968Y036060D01*
X027901Y036088D01*
X027911Y036138D01*
X037059D01*
X037059Y036138D01*
X037102Y036146D01*
X037138Y036171D01*
X038915Y037947D01*
X039664D01*
Y038855D01*
X038756D01*
Y038106D01*
X037012Y036362D01*
X035400D01*
X035380Y036412D01*
X036976Y038009D01*
X036981Y038005D01*
X037091Y037959D01*
X037210Y037943D01*
X037328Y037959D01*
X037439Y038005D01*
X037533Y038077D01*
X037606Y038172D01*
X037652Y038283D01*
X037667Y038401D01*
X037652Y038519D01*
X037606Y038630D01*
X037533Y038725D01*
X037439Y038797D01*
X037328Y038843D01*
X037210Y038859D01*
X037091Y038843D01*
X036981Y038797D01*
X036886Y038725D01*
X036814Y038630D01*
X036768Y038519D01*
X036752Y038401D01*
X036768Y038283D01*
X036814Y038172D01*
X036817Y038167D01*
X035212Y036562D01*
X033600D01*
X033580Y036612D01*
X034976Y038009D01*
X034981Y038005D01*
X035091Y037959D01*
X035210Y037943D01*
X035328Y037959D01*
X035439Y038005D01*
X035533Y038077D01*
X035606Y038172D01*
X035652Y038283D01*
X035667Y038401D01*
X035652Y038519D01*
X035606Y038630D01*
X035533Y038725D01*
X035439Y038797D01*
X035328Y038843D01*
X035210Y038859D01*
X035091Y038843D01*
X034981Y038797D01*
X034886Y038725D01*
X034814Y038630D01*
X034768Y038519D01*
X034752Y038401D01*
X034768Y038283D01*
X034814Y038172D01*
X034817Y038167D01*
X033412Y036762D01*
X031800D01*
X031780Y036812D01*
X032976Y038009D01*
X032981Y038005D01*
X033091Y037959D01*
X033210Y037943D01*
X033328Y037959D01*
X033439Y038005D01*
X033533Y038077D01*
X033606Y038172D01*
X033652Y038283D01*
X033667Y038401D01*
X033652Y038519D01*
X033606Y038630D01*
X033533Y038725D01*
X033439Y038797D01*
X033328Y038843D01*
X033210Y038859D01*
D02*
G37*
G36*
X030210Y038859D02*
X030091Y038843D01*
X029981Y038797D01*
X029886Y038725D01*
X029814Y038630D01*
X029768Y038519D01*
X029752Y038401D01*
X029768Y038283D01*
X029814Y038172D01*
X029886Y038077D01*
X029981Y038005D01*
X030091Y037959D01*
X030210Y037943D01*
X030328Y037959D01*
X030439Y038005D01*
X030533Y038077D01*
X030606Y038172D01*
X030652Y038283D01*
X030667Y038401D01*
X030652Y038519D01*
X030606Y038630D01*
X030533Y038725D01*
X030439Y038797D01*
X030328Y038843D01*
X030210Y038859D01*
D02*
G37*
G36*
X027950D02*
X027832Y038843D01*
X027721Y038797D01*
X027626Y038725D01*
X027554Y038630D01*
X027508Y038519D01*
X027492Y038401D01*
X027508Y038283D01*
X027554Y038172D01*
X027626Y038077D01*
X027721Y038005D01*
X027832Y037959D01*
X027950Y037943D01*
X028068Y037959D01*
X028179Y038005D01*
X028274Y038077D01*
X028346Y038172D01*
X028392Y038283D01*
X028408Y038401D01*
X028392Y038519D01*
X028346Y038630D01*
X028274Y038725D01*
X028179Y038797D01*
X028068Y038843D01*
X027950Y038859D01*
D02*
G37*
G36*
X026950D02*
X026832Y038843D01*
X026721Y038797D01*
X026626Y038725D01*
X026554Y038630D01*
X026508Y038519D01*
X026492Y038401D01*
X026508Y038283D01*
X026554Y038172D01*
X026626Y038077D01*
X026721Y038005D01*
X026832Y037959D01*
X026950Y037943D01*
X027068Y037959D01*
X027179Y038005D01*
X027274Y038077D01*
X027346Y038172D01*
X027392Y038283D01*
X027408Y038401D01*
X027392Y038519D01*
X027346Y038630D01*
X027274Y038725D01*
X027179Y038797D01*
X027068Y038843D01*
X026950Y038859D01*
D02*
G37*
G36*
X024950D02*
X024832Y038843D01*
X024721Y038797D01*
X024626Y038725D01*
X024554Y038630D01*
X024508Y038519D01*
X024492Y038401D01*
X024508Y038283D01*
X024554Y038172D01*
X024626Y038077D01*
X024721Y038005D01*
X024832Y037959D01*
X024950Y037943D01*
X025068Y037959D01*
X025179Y038005D01*
X025274Y038077D01*
X025346Y038172D01*
X025392Y038283D01*
X025408Y038401D01*
X025392Y038519D01*
X025346Y038630D01*
X025274Y038725D01*
X025179Y038797D01*
X025068Y038843D01*
X024950Y038859D01*
D02*
G37*
G36*
X023950D02*
X023832Y038843D01*
X023721Y038797D01*
X023626Y038725D01*
X023554Y038630D01*
X023508Y038519D01*
X023492Y038401D01*
X023508Y038283D01*
X023554Y038172D01*
X023626Y038077D01*
X023721Y038005D01*
X023832Y037959D01*
X023950Y037943D01*
X024068Y037959D01*
X024179Y038005D01*
X024274Y038077D01*
X024346Y038172D01*
X024392Y038283D01*
X024408Y038401D01*
X024392Y038519D01*
X024346Y038630D01*
X024274Y038725D01*
X024179Y038797D01*
X024068Y038843D01*
X023950Y038859D01*
D02*
G37*
G36*
X021950D02*
X021832Y038843D01*
X021721Y038797D01*
X021626Y038725D01*
X021554Y038630D01*
X021508Y038519D01*
X021492Y038401D01*
X021508Y038283D01*
X021554Y038172D01*
X021626Y038077D01*
X021721Y038005D01*
X021832Y037959D01*
X021950Y037943D01*
X022068Y037959D01*
X022179Y038005D01*
X022274Y038077D01*
X022346Y038172D01*
X022392Y038283D01*
X022408Y038401D01*
X022392Y038519D01*
X022346Y038630D01*
X022274Y038725D01*
X022179Y038797D01*
X022068Y038843D01*
X021950Y038859D01*
D02*
G37*
G36*
X020950D02*
X020832Y038843D01*
X020721Y038797D01*
X020626Y038725D01*
X020554Y038630D01*
X020508Y038519D01*
X020492Y038401D01*
X020508Y038283D01*
X020554Y038172D01*
X020626Y038077D01*
X020721Y038005D01*
X020832Y037959D01*
X020950Y037943D01*
X021068Y037959D01*
X021179Y038005D01*
X021274Y038077D01*
X021346Y038172D01*
X021392Y038283D01*
X021408Y038401D01*
X021392Y038519D01*
X021346Y038630D01*
X021274Y038725D01*
X021179Y038797D01*
X021068Y038843D01*
X020950Y038859D01*
D02*
G37*
G36*
X019950D02*
X019832Y038843D01*
X019721Y038797D01*
X019626Y038725D01*
X019554Y038630D01*
X019508Y038519D01*
X019492Y038401D01*
X019508Y038283D01*
X019554Y038172D01*
X019626Y038077D01*
X019721Y038005D01*
X019832Y037959D01*
X019950Y037943D01*
X020068Y037959D01*
X020179Y038005D01*
X020274Y038077D01*
X020346Y038172D01*
X020392Y038283D01*
X020408Y038401D01*
X020392Y038519D01*
X020346Y038630D01*
X020274Y038725D01*
X020179Y038797D01*
X020068Y038843D01*
X019950Y038859D01*
D02*
G37*
G36*
X017690D02*
X017572Y038843D01*
X017461Y038797D01*
X017367Y038725D01*
X017294Y038630D01*
X017248Y038519D01*
X017233Y038401D01*
X017248Y038283D01*
X017294Y038172D01*
X017367Y038077D01*
X017461Y038005D01*
X017572Y037959D01*
X017690Y037943D01*
X017809Y037959D01*
X017919Y038005D01*
X018014Y038077D01*
X018086Y038172D01*
X018132Y038283D01*
X018148Y038401D01*
X018132Y038519D01*
X018086Y038630D01*
X018014Y038725D01*
X017919Y038797D01*
X017809Y038843D01*
X017690Y038859D01*
D02*
G37*
G36*
X016690Y038859D02*
X016572Y038843D01*
X016461Y038797D01*
X016367Y038725D01*
X016294Y038630D01*
X016248Y038519D01*
X016233Y038401D01*
X016248Y038283D01*
X016294Y038172D01*
X016367Y038077D01*
X016461Y038005D01*
X016572Y037959D01*
X016690Y037943D01*
X016809Y037959D01*
X016919Y038005D01*
X017014Y038077D01*
X017086Y038172D01*
X017132Y038283D01*
X017148Y038401D01*
X017132Y038519D01*
X017086Y038630D01*
X017014Y038725D01*
X016919Y038797D01*
X016809Y038843D01*
X016690Y038859D01*
D02*
G37*
G36*
X015690D02*
X015572Y038843D01*
X015461Y038797D01*
X015367Y038725D01*
X015294Y038630D01*
X015248Y038519D01*
X015233Y038401D01*
X015248Y038283D01*
X015294Y038172D01*
X015367Y038077D01*
X015461Y038005D01*
X015572Y037959D01*
X015690Y037943D01*
X015809Y037959D01*
X015919Y038005D01*
X016014Y038077D01*
X016086Y038172D01*
X016132Y038283D01*
X016148Y038401D01*
X016132Y038519D01*
X016086Y038630D01*
X016014Y038725D01*
X015919Y038797D01*
X015809Y038843D01*
X015690Y038859D01*
D02*
G37*
G36*
X018143Y036691D02*
X018035Y036677D01*
X017934Y036635D01*
X017847Y036568D01*
X017781Y036482D01*
X017739Y036381D01*
X017725Y036273D01*
X017739Y036165D01*
X017781Y036064D01*
X017847Y035977D01*
X017934Y035911D01*
X018035Y035869D01*
X018143Y035855D01*
X018251Y035869D01*
X018352Y035911D01*
X018438Y035977D01*
X018505Y036064D01*
X018547Y036165D01*
X018561Y036273D01*
X018547Y036381D01*
X018505Y036482D01*
X018438Y036568D01*
X018352Y036635D01*
X018251Y036677D01*
X018143Y036691D01*
D02*
G37*
G36*
Y035691D02*
X018035Y035677D01*
X017934Y035635D01*
X017847Y035568D01*
X017781Y035482D01*
X017739Y035381D01*
X017725Y035273D01*
X017739Y035165D01*
X017781Y035064D01*
X017847Y034977D01*
X017934Y034911D01*
X018035Y034869D01*
X018143Y034855D01*
X018251Y034869D01*
X018352Y034911D01*
X018438Y034977D01*
X018505Y035064D01*
X018547Y035165D01*
X018561Y035273D01*
X018547Y035381D01*
X018505Y035482D01*
X018438Y035568D01*
X018352Y035635D01*
X018251Y035677D01*
X018143Y035691D01*
D02*
G37*
G36*
X014556Y036813D02*
X014493Y036801D01*
X014440Y036765D01*
X014405Y036712D01*
X014393Y036650D01*
X014405Y036588D01*
X014440Y036535D01*
X014493Y036499D01*
X014556Y036487D01*
X014560Y036488D01*
X014826Y036221D01*
Y034195D01*
X014823Y034193D01*
X014788Y034140D01*
X014775Y034078D01*
X014788Y034015D01*
X014823Y033962D01*
X014876Y033927D01*
X014938Y033915D01*
X015001Y033927D01*
X015054Y033962D01*
X015089Y034015D01*
X015102Y034078D01*
X015089Y034140D01*
X015054Y034193D01*
X015051Y034195D01*
Y036267D01*
X015051Y036267D01*
X015042Y036310D01*
X015018Y036347D01*
X015018Y036347D01*
X014718Y036646D01*
X014719Y036650D01*
X014707Y036712D01*
X014671Y036765D01*
X014618Y036801D01*
X014556Y036813D01*
D02*
G37*
G36*
X018143Y034691D02*
X018035Y034677D01*
X017934Y034635D01*
X017847Y034568D01*
X017781Y034482D01*
X017739Y034381D01*
X017725Y034273D01*
X017739Y034165D01*
X017781Y034064D01*
X017847Y033977D01*
X017934Y033911D01*
X018035Y033869D01*
X018143Y033855D01*
X018251Y033869D01*
X018352Y033911D01*
X018438Y033977D01*
X018505Y034064D01*
X018547Y034165D01*
X018561Y034273D01*
X018547Y034381D01*
X018505Y034482D01*
X018438Y034568D01*
X018352Y034635D01*
X018251Y034677D01*
X018143Y034691D01*
D02*
G37*
G36*
X037647Y036194D02*
X037455Y036179D01*
X037268Y036134D01*
X037090Y036060D01*
X036926Y035959D01*
X036780Y035834D01*
X036655Y035688D01*
X036555Y035524D01*
X036481Y035346D01*
X036436Y035159D01*
X036421Y034967D01*
X036436Y034775D01*
X036481Y034588D01*
X036555Y034411D01*
X036655Y034246D01*
X036780Y034100D01*
X036926Y033975D01*
X037090Y033875D01*
X037268Y033801D01*
X037455Y033756D01*
X037647Y033741D01*
X037839Y033756D01*
X038026Y033801D01*
X038204Y033875D01*
X038368Y033975D01*
X038514Y034100D01*
X038639Y034246D01*
X038740Y034411D01*
X038814Y034588D01*
X038858Y034775D01*
X038874Y034967D01*
X038858Y035159D01*
X038814Y035346D01*
X038740Y035524D01*
X038639Y035688D01*
X038514Y035834D01*
X038368Y035959D01*
X038204Y036060D01*
X038026Y036134D01*
X037839Y036179D01*
X037647Y036194D01*
D02*
G37*
G36*
X018143Y033691D02*
X018035Y033677D01*
X017934Y033635D01*
X017847Y033568D01*
X017781Y033482D01*
X017739Y033381D01*
X017725Y033273D01*
X017739Y033165D01*
X017781Y033064D01*
X017847Y032977D01*
X017934Y032911D01*
X018035Y032869D01*
X018143Y032855D01*
X018251Y032869D01*
X018352Y032911D01*
X018438Y032977D01*
X018505Y033064D01*
X018547Y033165D01*
X018561Y033273D01*
X018547Y033381D01*
X018505Y033482D01*
X018438Y033568D01*
X018352Y033635D01*
X018251Y033677D01*
X018143Y033691D01*
D02*
G37*
G36*
Y032691D02*
X018035Y032677D01*
X017934Y032635D01*
X017847Y032568D01*
X017781Y032482D01*
X017739Y032381D01*
X017725Y032273D01*
X017739Y032165D01*
X017781Y032064D01*
X017847Y031977D01*
X017934Y031911D01*
X018035Y031869D01*
X018143Y031855D01*
X018251Y031869D01*
X018352Y031911D01*
X018438Y031977D01*
X018505Y032064D01*
X018547Y032165D01*
X018561Y032273D01*
X018547Y032381D01*
X018505Y032482D01*
X018438Y032568D01*
X018352Y032635D01*
X018251Y032677D01*
X018143Y032691D01*
D02*
G37*
G36*
Y031691D02*
X018035Y031677D01*
X017934Y031635D01*
X017847Y031568D01*
X017781Y031482D01*
X017739Y031381D01*
X017725Y031273D01*
X017739Y031165D01*
X017781Y031064D01*
X017847Y030977D01*
X017934Y030911D01*
X018035Y030869D01*
X018143Y030855D01*
X018251Y030869D01*
X018352Y030911D01*
X018438Y030977D01*
X018505Y031064D01*
X018547Y031165D01*
X018561Y031273D01*
X018547Y031381D01*
X018505Y031482D01*
X018438Y031568D01*
X018352Y031635D01*
X018251Y031677D01*
X018143Y031691D01*
D02*
G37*
G36*
Y030691D02*
X018035Y030677D01*
X017934Y030635D01*
X017847Y030568D01*
X017781Y030482D01*
X017739Y030381D01*
X017725Y030273D01*
X017739Y030165D01*
X017781Y030064D01*
X017847Y029977D01*
X017934Y029911D01*
X018035Y029869D01*
X018143Y029855D01*
X018251Y029869D01*
X018352Y029911D01*
X018438Y029977D01*
X018505Y030064D01*
X018547Y030165D01*
X018561Y030273D01*
X018547Y030381D01*
X018505Y030482D01*
X018438Y030568D01*
X018352Y030635D01*
X018251Y030677D01*
X018143Y030691D01*
D02*
G37*
G36*
Y029691D02*
X018035Y029677D01*
X017934Y029635D01*
X017847Y029568D01*
X017781Y029482D01*
X017739Y029381D01*
X017725Y029273D01*
X017739Y029165D01*
X017781Y029064D01*
X017847Y028977D01*
X017934Y028911D01*
X018035Y028869D01*
X018143Y028855D01*
X018251Y028869D01*
X018352Y028911D01*
X018438Y028977D01*
X018505Y029064D01*
X018547Y029165D01*
X018561Y029273D01*
X018547Y029381D01*
X018505Y029482D01*
X018438Y029568D01*
X018352Y029635D01*
X018251Y029677D01*
X018143Y029691D01*
D02*
G37*
G36*
Y028691D02*
X018035Y028677D01*
X017934Y028635D01*
X017847Y028568D01*
X017781Y028482D01*
X017739Y028381D01*
X017725Y028273D01*
X017739Y028165D01*
X017781Y028064D01*
X017847Y027977D01*
X017934Y027911D01*
X018035Y027869D01*
X018143Y027855D01*
X018251Y027869D01*
X018352Y027911D01*
X018438Y027977D01*
X018505Y028064D01*
X018547Y028165D01*
X018561Y028273D01*
X018547Y028381D01*
X018505Y028482D01*
X018438Y028568D01*
X018352Y028635D01*
X018251Y028677D01*
X018143Y028691D01*
D02*
G37*
G36*
X018183Y027685D02*
Y027313D01*
X018556D01*
X018547Y027381D01*
X018505Y027482D01*
X018438Y027568D01*
X018352Y027635D01*
X018251Y027677D01*
X018183Y027685D01*
D02*
G37*
G36*
X018103D02*
X018035Y027677D01*
X017934Y027635D01*
X017847Y027568D01*
X017781Y027482D01*
X017739Y027381D01*
X017730Y027313D01*
X018103D01*
Y027685D01*
D02*
G37*
G36*
X018556Y027233D02*
X018183D01*
Y026860D01*
X018251Y026869D01*
X018352Y026911D01*
X018438Y026977D01*
X018505Y027064D01*
X018547Y027165D01*
X018556Y027233D01*
D02*
G37*
G36*
X018103D02*
X017730D01*
X017739Y027165D01*
X017781Y027064D01*
X017847Y026977D01*
X017934Y026911D01*
X018035Y026869D01*
X018103Y026860D01*
Y027233D01*
D02*
G37*
G36*
X024143Y027691D02*
X024035Y027677D01*
X023934Y027635D01*
X023847Y027568D01*
X023781Y027482D01*
X023739Y027381D01*
X023725Y027273D01*
X023739Y027165D01*
X023781Y027064D01*
X023847Y026977D01*
X023934Y026911D01*
X024035Y026869D01*
X024143Y026855D01*
X024251Y026869D01*
X024352Y026911D01*
X024438Y026977D01*
X024505Y027064D01*
X024547Y027165D01*
X024561Y027273D01*
X024547Y027381D01*
X024505Y027482D01*
X024438Y027568D01*
X024352Y027635D01*
X024251Y027677D01*
X024143Y027691D01*
D02*
G37*
G36*
X018143Y026691D02*
X018035Y026677D01*
X017934Y026635D01*
X017847Y026568D01*
X017781Y026482D01*
X017739Y026381D01*
X017725Y026273D01*
X017739Y026165D01*
X017781Y026064D01*
X017847Y025977D01*
X017934Y025911D01*
X018035Y025869D01*
X018143Y025855D01*
X018251Y025869D01*
X018352Y025911D01*
X018438Y025977D01*
X018505Y026064D01*
X018547Y026165D01*
X018561Y026273D01*
X018547Y026381D01*
X018505Y026482D01*
X018438Y026568D01*
X018352Y026635D01*
X018251Y026677D01*
X018143Y026691D01*
D02*
G37*
G36*
Y025691D02*
X018035Y025677D01*
X017934Y025635D01*
X017847Y025568D01*
X017781Y025482D01*
X017739Y025381D01*
X017725Y025273D01*
X017739Y025165D01*
X017781Y025064D01*
X017847Y024977D01*
X017934Y024911D01*
X018035Y024869D01*
X018143Y024855D01*
X018251Y024869D01*
X018352Y024911D01*
X018438Y024977D01*
X018505Y025064D01*
X018547Y025165D01*
X018561Y025273D01*
X018547Y025381D01*
X018505Y025482D01*
X018438Y025568D01*
X018352Y025635D01*
X018251Y025677D01*
X018143Y025691D01*
D02*
G37*
G36*
Y024691D02*
X018035Y024677D01*
X017934Y024635D01*
X017847Y024568D01*
X017781Y024482D01*
X017739Y024381D01*
X017725Y024273D01*
X017739Y024165D01*
X017781Y024064D01*
X017847Y023977D01*
X017934Y023911D01*
X018035Y023869D01*
X018143Y023855D01*
X018251Y023869D01*
X018352Y023911D01*
X018438Y023977D01*
X018505Y024064D01*
X018547Y024165D01*
X018561Y024273D01*
X018547Y024381D01*
X018505Y024482D01*
X018438Y024568D01*
X018352Y024635D01*
X018251Y024677D01*
X018143Y024691D01*
D02*
G37*
G36*
Y023691D02*
X018035Y023677D01*
X017934Y023635D01*
X017847Y023568D01*
X017781Y023482D01*
X017739Y023381D01*
X017725Y023273D01*
X017739Y023165D01*
X017781Y023064D01*
X017847Y022977D01*
X017934Y022911D01*
X018035Y022869D01*
X018143Y022855D01*
X018251Y022869D01*
X018352Y022911D01*
X018438Y022977D01*
X018505Y023064D01*
X018547Y023165D01*
X018561Y023273D01*
X018547Y023381D01*
X018505Y023482D01*
X018438Y023568D01*
X018352Y023635D01*
X018251Y023677D01*
X018143Y023691D01*
D02*
G37*
G36*
Y022691D02*
X018035Y022677D01*
X017934Y022635D01*
X017847Y022568D01*
X017781Y022482D01*
X017739Y022381D01*
X017725Y022273D01*
X017739Y022165D01*
X017781Y022064D01*
X017847Y021977D01*
X017934Y021911D01*
X018035Y021869D01*
X018143Y021855D01*
X018251Y021869D01*
X018352Y021911D01*
X018438Y021977D01*
X018505Y022064D01*
X018547Y022165D01*
X018561Y022273D01*
X018547Y022381D01*
X018505Y022482D01*
X018438Y022568D01*
X018352Y022635D01*
X018251Y022677D01*
X018143Y022691D01*
D02*
G37*
G36*
Y021691D02*
X018035Y021677D01*
X017934Y021635D01*
X017847Y021568D01*
X017781Y021482D01*
X017739Y021381D01*
X017725Y021273D01*
X017739Y021165D01*
X017781Y021064D01*
X017847Y020977D01*
X017934Y020911D01*
X018035Y020869D01*
X018143Y020855D01*
X018251Y020869D01*
X018352Y020911D01*
X018438Y020977D01*
X018505Y021064D01*
X018547Y021165D01*
X018561Y021273D01*
X018547Y021381D01*
X018505Y021482D01*
X018438Y021568D01*
X018352Y021635D01*
X018251Y021677D01*
X018143Y021691D01*
D02*
G37*
G36*
Y020691D02*
X018035Y020677D01*
X017934Y020635D01*
X017847Y020568D01*
X017781Y020482D01*
X017739Y020381D01*
X017725Y020273D01*
X017739Y020165D01*
X017781Y020064D01*
X017847Y019977D01*
X017934Y019911D01*
X018035Y019869D01*
X018143Y019855D01*
X018251Y019869D01*
X018352Y019911D01*
X018438Y019977D01*
X018505Y020064D01*
X018547Y020165D01*
X018561Y020273D01*
X018547Y020381D01*
X018505Y020482D01*
X018438Y020568D01*
X018352Y020635D01*
X018251Y020677D01*
X018143Y020691D01*
D02*
G37*
G36*
Y019691D02*
X018035Y019677D01*
X017934Y019635D01*
X017847Y019568D01*
X017781Y019482D01*
X017739Y019381D01*
X017725Y019273D01*
X017739Y019165D01*
X017781Y019064D01*
X017847Y018977D01*
X017934Y018911D01*
X018035Y018869D01*
X018143Y018855D01*
X018251Y018869D01*
X018352Y018911D01*
X018438Y018977D01*
X018505Y019064D01*
X018547Y019165D01*
X018561Y019273D01*
X018547Y019381D01*
X018505Y019482D01*
X018438Y019568D01*
X018352Y019635D01*
X018251Y019677D01*
X018143Y019691D01*
D02*
G37*
G36*
Y018691D02*
X018035Y018677D01*
X017934Y018635D01*
X017847Y018568D01*
X017781Y018482D01*
X017739Y018381D01*
X017725Y018273D01*
X017739Y018165D01*
X017781Y018064D01*
X017847Y017977D01*
X017934Y017911D01*
X018035Y017869D01*
X018143Y017855D01*
X018251Y017869D01*
X018352Y017911D01*
X018438Y017977D01*
X018505Y018064D01*
X018547Y018165D01*
X018561Y018273D01*
X018547Y018381D01*
X018505Y018482D01*
X018438Y018568D01*
X018352Y018635D01*
X018251Y018677D01*
X018143Y018691D01*
D02*
G37*
G36*
X024143Y017691D02*
X024035Y017677D01*
X023934Y017635D01*
X023847Y017568D01*
X023781Y017482D01*
X023739Y017381D01*
X023725Y017273D01*
X023739Y017165D01*
X023781Y017064D01*
X023847Y016977D01*
X023934Y016911D01*
X024035Y016869D01*
X024143Y016855D01*
X024251Y016869D01*
X024352Y016911D01*
X024438Y016977D01*
X024505Y017064D01*
X024547Y017165D01*
X024561Y017273D01*
X024547Y017381D01*
X024505Y017482D01*
X024438Y017568D01*
X024352Y017635D01*
X024251Y017677D01*
X024143Y017691D01*
D02*
G37*
G36*
X018143D02*
X018035Y017677D01*
X017934Y017635D01*
X017847Y017568D01*
X017781Y017482D01*
X017739Y017381D01*
X017725Y017273D01*
X017739Y017165D01*
X017781Y017064D01*
X017847Y016977D01*
X017934Y016911D01*
X018035Y016869D01*
X018143Y016855D01*
X018251Y016869D01*
X018352Y016911D01*
X018438Y016977D01*
X018505Y017064D01*
X018547Y017165D01*
X018561Y017273D01*
X018547Y017381D01*
X018505Y017482D01*
X018438Y017568D01*
X018352Y017635D01*
X018251Y017677D01*
X018143Y017691D01*
D02*
G37*
G36*
X024143Y016691D02*
X024035Y016676D01*
X023934Y016635D01*
X023847Y016568D01*
X023781Y016482D01*
X023739Y016381D01*
X023725Y016273D01*
X023739Y016165D01*
X023781Y016064D01*
X023847Y015977D01*
X023934Y015911D01*
X024035Y015869D01*
X024143Y015855D01*
X024251Y015869D01*
X024352Y015911D01*
X024438Y015977D01*
X024505Y016064D01*
X024547Y016165D01*
X024561Y016273D01*
X024547Y016381D01*
X024505Y016482D01*
X024438Y016568D01*
X024352Y016635D01*
X024251Y016676D01*
X024143Y016691D01*
D02*
G37*
G36*
X018143D02*
X018035Y016676D01*
X017934Y016635D01*
X017847Y016568D01*
X017781Y016482D01*
X017739Y016381D01*
X017725Y016273D01*
X017739Y016165D01*
X017781Y016064D01*
X017847Y015977D01*
X017934Y015911D01*
X018035Y015869D01*
X018143Y015855D01*
X018251Y015869D01*
X018352Y015911D01*
X018438Y015977D01*
X018505Y016064D01*
X018547Y016165D01*
X018561Y016273D01*
X018547Y016381D01*
X018505Y016482D01*
X018438Y016568D01*
X018352Y016635D01*
X018251Y016676D01*
X018143Y016691D01*
D02*
G37*
G36*
X024143Y015691D02*
X024035Y015676D01*
X023934Y015635D01*
X023847Y015568D01*
X023781Y015482D01*
X023739Y015381D01*
X023725Y015273D01*
X023739Y015165D01*
X023781Y015064D01*
X023847Y014977D01*
X023934Y014911D01*
X024035Y014869D01*
X024143Y014855D01*
X024251Y014869D01*
X024352Y014911D01*
X024438Y014977D01*
X024505Y015064D01*
X024547Y015165D01*
X024561Y015273D01*
X024547Y015381D01*
X024505Y015482D01*
X024438Y015568D01*
X024352Y015635D01*
X024251Y015676D01*
X024143Y015691D01*
D02*
G37*
G36*
X018143D02*
X018035Y015676D01*
X017934Y015635D01*
X017847Y015568D01*
X017781Y015482D01*
X017739Y015381D01*
X017725Y015273D01*
X017739Y015165D01*
X017781Y015064D01*
X017847Y014977D01*
X017934Y014911D01*
X018035Y014869D01*
X018143Y014855D01*
X018251Y014869D01*
X018352Y014911D01*
X018438Y014977D01*
X018505Y015064D01*
X018547Y015165D01*
X018561Y015273D01*
X018547Y015381D01*
X018505Y015482D01*
X018438Y015568D01*
X018352Y015635D01*
X018251Y015676D01*
X018143Y015691D01*
D02*
G37*
G36*
X018183Y014685D02*
Y014313D01*
X018556D01*
X018547Y014381D01*
X018505Y014482D01*
X018438Y014568D01*
X018352Y014635D01*
X018251Y014677D01*
X018183Y014685D01*
D02*
G37*
G36*
X018103D02*
X018035Y014677D01*
X017934Y014635D01*
X017847Y014568D01*
X017781Y014482D01*
X017739Y014381D01*
X017730Y014313D01*
X018103D01*
Y014685D01*
D02*
G37*
G36*
X018556Y014233D02*
X018183D01*
Y013860D01*
X018251Y013869D01*
X018352Y013911D01*
X018438Y013977D01*
X018505Y014064D01*
X018547Y014165D01*
X018556Y014233D01*
D02*
G37*
G36*
X013548Y037212D02*
X013480Y037203D01*
X013417Y037177D01*
X013363Y037135D01*
X013321Y037081D01*
X013295Y037018D01*
X013286Y036950D01*
Y017868D01*
X013286Y017867D01*
X013295Y017800D01*
X013321Y017736D01*
X013363Y017682D01*
X017730Y013314D01*
X017725Y013273D01*
X017739Y013165D01*
X017781Y013064D01*
X017847Y012977D01*
X017934Y012911D01*
X018035Y012869D01*
X018143Y012855D01*
X018251Y012869D01*
X018352Y012911D01*
X018438Y012977D01*
X018505Y013064D01*
X018547Y013165D01*
X018561Y013273D01*
X018547Y013381D01*
X018505Y013482D01*
X018438Y013568D01*
X018352Y013635D01*
X018251Y013677D01*
X018143Y013691D01*
X018101Y013685D01*
X017927Y013860D01*
X017955Y013902D01*
X018035Y013869D01*
X018103Y013860D01*
Y014233D01*
X017730D01*
X017739Y014165D01*
X017772Y014085D01*
X017730Y014057D01*
X013810Y017976D01*
Y036950D01*
X013802Y037018D01*
X013775Y037081D01*
X013734Y037135D01*
X013679Y037177D01*
X013616Y037203D01*
X013548Y037212D01*
D02*
G37*
G36*
X024143Y014691D02*
X024035Y014677D01*
X023934Y014635D01*
X023847Y014568D01*
X023781Y014482D01*
X023739Y014381D01*
X023725Y014273D01*
X023739Y014165D01*
X023781Y014064D01*
X023847Y013977D01*
X023934Y013911D01*
X024035Y013869D01*
X024143Y013855D01*
X024251Y013869D01*
X024352Y013911D01*
X024438Y013977D01*
X024505Y014064D01*
X024547Y014165D01*
X024561Y014273D01*
X024547Y014381D01*
X024505Y014482D01*
X024438Y014568D01*
X024352Y014635D01*
X024251Y014677D01*
X024143Y014691D01*
D02*
G37*
G36*
X024183Y013685D02*
Y013313D01*
X024556D01*
X024547Y013381D01*
X024505Y013482D01*
X024438Y013568D01*
X024352Y013635D01*
X024251Y013677D01*
X024183Y013685D01*
D02*
G37*
G36*
X024103D02*
X024035Y013677D01*
X023934Y013635D01*
X023847Y013568D01*
X023781Y013482D01*
X023739Y013381D01*
X023730Y013313D01*
X024103D01*
Y013685D01*
D02*
G37*
G36*
X024556Y013233D02*
X024183D01*
Y012860D01*
X024251Y012869D01*
X024352Y012911D01*
X024438Y012977D01*
X024505Y013064D01*
X024547Y013165D01*
X024556Y013233D01*
D02*
G37*
G36*
X024103D02*
X023730D01*
X023739Y013165D01*
X023781Y013064D01*
X023847Y012977D01*
X023934Y012911D01*
X024035Y012869D01*
X024103Y012860D01*
Y013233D01*
D02*
G37*
%LPD*%
D10*
X033459Y036650D02*
X035210Y038401D01*
X026850Y036650D02*
X033459D01*
X035259Y036450D02*
X037210Y038401D01*
X026876Y036450D02*
X035259D01*
X029859Y037050D02*
X031210Y038401D01*
X026705Y037050D02*
X029859D01*
X031659Y036850D02*
X033210Y038401D01*
X026800Y036850D02*
X031659D01*
X025344Y034692D02*
X026903Y036250D01*
X025050Y034624D02*
X026876Y036450D01*
X024800Y034600D02*
X026850Y036650D01*
X024223Y034273D02*
X026800Y036850D01*
X024143Y036273D02*
X025702D01*
X026679Y037250D01*
X027799D01*
X028950Y038401D01*
X024143Y034273D02*
X024223D01*
X024800Y033930D02*
Y034600D01*
X024143Y033273D02*
X024800Y033930D01*
X024143Y032273D02*
X025050Y033180D01*
Y034624D01*
X024143Y031273D02*
X025344Y032474D01*
Y034692D01*
X026903Y036250D02*
X037059D01*
X039210Y038401D01*
X024143Y035273D02*
X024928D01*
X026705Y037050D01*
X025400Y013861D02*
X026411Y012850D01*
X025200Y013834D02*
X026384Y012650D01*
X025800Y013913D02*
Y019616D01*
X038416Y013050D02*
X039150Y013785D01*
X026463Y013250D02*
X038333D01*
X025200Y013834D02*
Y017500D01*
X025600Y013887D02*
Y018816D01*
X026384Y012650D02*
X038581D01*
X025600Y013887D02*
X026437Y013050D01*
X038416D01*
X025400Y013861D02*
Y018016D01*
X026411Y012850D02*
X038498D01*
X025800Y013913D02*
X026463Y013250D01*
X014556Y036650D02*
X014938Y036267D01*
Y034078D02*
Y036267D01*
X024507Y030637D02*
X027608D01*
X024143Y030273D02*
X024507Y030637D01*
X024748Y028668D02*
X027608D01*
X024143Y029273D02*
X024748Y028668D01*
X025716Y026700D02*
X027608D01*
X024143Y028273D02*
X025716Y026700D01*
X025685Y024731D02*
X027608D01*
X024143Y026273D02*
X025685Y024731D01*
X026653Y022763D02*
X027608D01*
X024019Y025397D02*
X026653Y022763D01*
X024136Y024266D02*
X027608Y020794D01*
X026300Y020133D02*
X027608Y018826D01*
X026300Y020133D02*
Y021116D01*
X024143Y023273D02*
X026300Y021116D01*
X026050Y018415D02*
X027608Y016857D01*
X026050Y018415D02*
Y020366D01*
X024143Y022273D02*
X026050Y020366D01*
X037450Y016857D02*
X038950Y015357D01*
Y013867D02*
Y015357D01*
X038333Y013250D02*
X038950Y013867D01*
X024143Y021273D02*
X025800Y019616D01*
X037450Y018826D02*
X039150Y017126D01*
Y013785D02*
Y017126D01*
X024143Y020273D02*
X025600Y018816D01*
X037450Y020794D02*
X039350Y018894D01*
Y013702D02*
Y018894D01*
X038498Y012850D02*
X039350Y013702D01*
X024143Y019273D02*
X025400Y018016D01*
X037450Y022763D02*
X039550Y020663D01*
Y013619D02*
Y020663D01*
X038581Y012650D02*
X039550Y013619D01*
X024427Y018273D02*
X025200Y017500D01*
X024143Y018273D02*
X024427D01*
D30*
X034828Y015928D02*
Y017344D01*
X030167Y015473D02*
Y016969D01*
D33*
X018690Y038401D02*
D03*
X039210Y038401D02*
D03*
X028950D02*
D03*
D34*
X017690D02*
D03*
X016690Y038401D02*
D03*
X015690D02*
D03*
X038210Y038401D02*
D03*
X037210D02*
D03*
X036210Y038401D02*
D03*
X035210Y038401D02*
D03*
X034210D02*
D03*
X033210Y038401D02*
D03*
X032210Y038401D02*
D03*
X031210D02*
D03*
X030210D02*
D03*
X027950D02*
D03*
X026950D02*
D03*
X025950Y038401D02*
D03*
X024950Y038401D02*
D03*
X023950D02*
D03*
X022950Y038401D02*
D03*
X021950Y038401D02*
D03*
X020950D02*
D03*
X019950D02*
D03*
D35*
X018143Y018273D02*
D03*
X024143Y034273D02*
D03*
X018143Y019273D02*
D03*
X024143Y033273D02*
D03*
Y035273D02*
D03*
Y032273D02*
D03*
X018143Y021273D02*
D03*
X024143Y031273D02*
D03*
X018143Y030273D02*
D03*
Y031273D02*
D03*
Y020273D02*
D03*
Y022273D02*
D03*
Y033273D02*
D03*
Y036273D02*
D03*
Y035273D02*
D03*
Y025273D02*
D03*
Y032273D02*
D03*
Y023273D02*
D03*
Y026273D02*
D03*
Y024273D02*
D03*
X024143Y036273D02*
D03*
Y030273D02*
D03*
Y029273D02*
D03*
Y028273D02*
D03*
Y026273D02*
D03*
Y025273D02*
D03*
Y024273D02*
D03*
Y023273D02*
D03*
Y022273D02*
D03*
Y021273D02*
D03*
Y020273D02*
D03*
Y019273D02*
D03*
Y018273D02*
D03*
Y017273D02*
D03*
Y016273D02*
D03*
Y015273D02*
D03*
Y014273D02*
D03*
X018143Y034273D02*
D03*
Y013273D02*
D03*
Y015273D02*
D03*
Y028273D02*
D03*
Y029273D02*
D03*
X024143Y027273D02*
D03*
X018143Y016273D02*
D03*
Y017273D02*
D03*
X024143Y013273D02*
D03*
X018143Y027273D02*
D03*
Y014273D02*
D03*
D36*
X027608Y030637D02*
D03*
Y028668D02*
D03*
Y026700D02*
D03*
Y024731D02*
D03*
Y022763D02*
D03*
Y020794D02*
D03*
Y018826D02*
D03*
Y016857D02*
D03*
X037450D02*
D03*
Y018826D02*
D03*
Y020794D02*
D03*
Y022763D02*
D03*
Y024731D02*
D03*
Y026700D02*
D03*
Y028668D02*
D03*
Y030637D02*
D03*
X027608Y032605D02*
D03*
X037450Y032605D02*
D03*
D37*
X027411Y014495D02*
D03*
X037647D02*
D03*
Y034967D02*
D03*
X027411D02*
D03*
D38*
X034852Y017369D02*
D03*
X030206D02*
D03*
D39*
X041033Y041033D02*
D03*
X013867Y013867D02*
D03*
X013887Y041033D02*
D03*
X041033Y013867D02*
D03*
D40*
X041715Y040350D02*
D03*
X041033Y040068D02*
D03*
X040350Y040350D02*
D03*
X040068Y041033D02*
D03*
X040350Y041715D02*
D03*
X041715D02*
D03*
X041998Y041033D02*
D03*
X041033Y041998D02*
D03*
X013867Y014832D02*
D03*
X014832Y013867D02*
D03*
X014550Y014550D02*
D03*
X013185D02*
D03*
X012902Y013867D02*
D03*
X013185Y013185D02*
D03*
X013867Y012902D02*
D03*
X014550Y013185D02*
D03*
Y040350D02*
D03*
X013867Y040068D02*
D03*
X013185Y040350D02*
D03*
X012902Y041033D02*
D03*
X013185Y041715D02*
D03*
X014550D02*
D03*
X014832Y041033D02*
D03*
X013867Y041998D02*
D03*
X041715Y013185D02*
D03*
X041033Y012902D02*
D03*
X040350Y013185D02*
D03*
X040068Y013867D02*
D03*
X040350Y014550D02*
D03*
X041715D02*
D03*
X041998Y013867D02*
D03*
X041033Y014832D02*
D03*
D41*
X014556Y036650D02*
D03*
X014938Y034078D02*
D03*
X013548Y036950D02*
D03*
D42*
Y017867D02*
X018143Y013273D01*
X013548Y017867D02*
Y036950D01*
M02*
