M48
;Layer_Color=4408131
;FILE_FORMAT=2:4
INCH
;TYPE=PLATED
T1F00S00C0.0100
T2F00S00C0.0276
T3F00S00C0.0402
T4F00S00C0.0512
T5F00S00C0.0689
T6F00S00C0.1181
T7F00S00C0.1360
;TYPE=NON_PLATED
T8F00S00C0.1142
%
T01
X014938Y034078
X014556Y036650
X013548Y036950
T02
X013185Y013185
X012902Y013867
X013185Y014550
X013867Y014832
X014550Y014550
X014832Y013867
X014550Y013185
X013867Y012902
X040350Y013185
X041033Y012902
X041715Y013185
X041998Y013867
X041715Y014550
X041033Y014832
X040350Y014550
X040068Y013867
X014550Y040350
X013867Y040068
X013185Y040350
X012902Y041033
X013185Y041715
X013867Y041998
X014550Y041715
X014832Y041033
X040068Y041033
X040350Y040350
X041033Y040068
X041715Y040350
X041998Y041033
X041715Y041715
X041033Y041998
X040350Y041715
T03
X018143Y013273
Y014273
Y015273
X024143
Y014273
Y013273
Y016273
Y017273
Y018273
Y019273
Y020273
Y021273
Y022273
Y023273
Y024273
Y025273
Y026273
Y027273
Y028273
Y029273
Y030273
X018143
Y029273
Y028273
Y027273
Y026273
Y025273
Y024273
Y023273
Y022273
Y021273
Y020273
Y019273
Y018273
Y017273
Y016273
Y031273
Y032273
Y033273
Y034273
Y035273
Y036273
X024143
Y035273
Y034273
Y033273
Y032273
Y031273
T04
X015690Y038401
X016690
X017690Y038401
X018690Y038401
X019950Y038401
X020950
X021950
X022950Y038401
X023950Y038401
X024950
X025950Y038401
X026950Y038401
X027950
X028950
X030210
X031210
X032210
X033210Y038401
X034210Y038401
X035210
X036210Y038401
X037210Y038401
X038210
X039210
T05
X037450Y016857
Y018826
Y020794
Y022763
Y024731
Y026700
Y028668
Y030637
X027608
Y028668
Y026700
Y024731
Y022763
Y020794
Y018826
Y016857
Y032605
X037450Y032605
T06
X034852Y017369
X030206
T07
X013867Y013867
X041033
X013887Y041033
X041033Y041033
T08
X027411Y014495
X037647
X027411Y034967
X037647
M30
